<svg width="80" height="80" viewBox="0 0 80 80" fill="none" xmlns="http://www.w3.org/2000/svg">
<g clip-path="url(#clip0_79_1302)">
<path d="M40.0003 45.3333C42.9458 45.3333 45.3337 42.9454 45.3337 39.9999C45.3337 37.0544 42.9458 34.6666 40.0003 34.6666C37.0548 34.6666 34.667 37.0544 34.667 39.9999C34.667 42.9454 37.0548 45.3333 40.0003 45.3333Z" fill="white"/>
<path d="M40.0004 22.6667C30.4274 22.6667 22.667 30.4271 22.667 40.0001C22.667 49.573 30.4275 57.3333 40.0004 57.3333C49.5732 57.3333 57.3337 49.5729 57.3337 39.9999C57.3227 30.4316 49.5688 22.6777 40.0004 22.6667ZM40.0004 48C35.5821 48 32.0004 44.4183 32.0004 39.9999C32.0004 35.5815 35.5821 32 40.0004 32C44.4186 32 48.0004 35.5817 48.0004 39.9999C47.996 44.4165 44.4169 47.9955 40.0004 48Z" fill="white"/>
<path d="M78.064 38.3319C73.5919 32.8893 58.2452 16 39.9999 16C21.7546 16 6.40805 32.8893 1.93604 38.3319C1.1333 39.2981 1.1333 40.6991 1.93604 41.6653C6.40805 47.1107 21.7546 64 40.0001 64C58.2455 64 73.5921 47.1107 78.0641 41.668C78.8681 40.7013 78.8681 39.2985 78.064 38.3319ZM39.9999 60C28.9542 60 20 51.0457 20 40.0001C20 28.9544 28.9543 20.0001 39.9999 20.0001C51.0455 20.0001 59.9999 28.9544 59.9999 40.0001C59.9875 51.0406 51.0406 59.9875 39.9999 60Z" fill="white"/>
<path d="M1.33337 10.6667C0.596922 10.6667 0 10.0697 0 9.3333V2.6666C0 1.19384 1.19384 0 2.6666 0H9.3333C10.0697 0 10.6667 0.596922 10.6667 1.33337C10.6667 2.06981 10.0697 2.66673 9.3333 2.66673H2.6666V9.33343C2.6666 10.0697 2.06968 10.6667 1.33337 10.6667Z" fill="white"/>
<path d="M78.6664 10.6667C77.93 10.6667 77.3331 10.0697 77.3331 9.3333V2.6666H70.6664C69.9301 2.6666 69.333 2.06968 69.333 1.33324C69.333 0.596793 69.9301 1.90735e-06 70.6665 1.90735e-06H77.3332C78.806 1.90735e-06 79.9998 1.19385 79.9998 2.6666V9.3333C79.9998 10.0697 79.4029 10.6667 78.6664 10.6667Z" fill="white"/>
<path d="M9.3333 80H2.6666C1.19384 80 0 78.806 0 77.3333V70.6666C0 69.9303 0.596922 69.3332 1.33337 69.3332C2.06981 69.3332 2.66673 69.9301 2.66673 70.6666V77.3333H9.33343C10.0699 77.3333 10.6668 77.9302 10.6668 78.6666C10.6667 79.4031 10.0697 80 9.3333 80Z" fill="white"/>
<path d="M77.3331 80H70.6664C69.9301 80 69.333 79.4031 69.333 78.6666C69.333 77.9302 69.9299 77.3333 70.6664 77.3333H77.3331V70.6666C77.3331 69.9303 77.93 69.3332 78.6664 69.3332C79.4028 69.3332 79.9998 69.9301 79.9998 70.6666V77.3333C79.9998 78.806 78.8058 80 77.3331 80Z" fill="white"/>
</g>
<defs>
<clipPath id="clip0_79_1302">
<rect width="80" height="80" fill="white"/>
</clipPath>
</defs>
</svg>
