<svg width="22" height="21" viewBox="0 0 22 21" fill="none" xmlns="http://www.w3.org/2000/svg">
<path d="M10.536 0.516753C10.704 0.0985187 11.296 0.0985183 11.464 0.516753L13.9865 6.79842C14.0581 6.97652 14.2252 7.09797 14.4167 7.11095L21.1704 7.56889C21.6201 7.59938 21.803 8.16247 21.4572 8.45145L16.2625 12.7917C16.1152 12.9147 16.0513 13.1112 16.0982 13.2974L17.7497 19.862C17.8596 20.2991 17.3806 20.6471 16.9989 20.4075L11.2659 16.8082C11.1033 16.7062 10.8967 16.7062 10.7341 16.8082L5.00109 20.4075C4.61938 20.6471 4.14039 20.2991 4.25035 19.862L5.90184 13.2974C5.94866 13.1112 5.88481 12.9147 5.73753 12.7917L0.542817 8.45145C0.196952 8.16247 0.379911 7.59938 0.829576 7.56889L7.58331 7.11095C7.77479 7.09797 7.94195 6.97653 8.01347 6.79842L10.536 0.516753Z" fill="#F1C40F"/>
</svg>
